<svg width="40" height="40" viewBox="0 0 40 40" fill="none" xmlns="http://www.w3.org/2000/svg" preserveAspectRatio="none">
<path fill-rule="evenodd" clip-rule="evenodd" d="M10.1187 6.67088C9.82275 6.67024 9.53741 6.70375 9.26626 6.76744C8.89457 5.9482 8.4036 5.21322 7.84518 4.6548C6.89739 3.70701 5.40259 3.33331 3.33334 3.33331V6.66665C4.59742 6.66665 5.32483 6.8485 5.48816 7.01182C6.11811 7.64178 6.66667 8.92175 6.66667 9.99998L6.68342 10.2357L8.31654 21.6675C5.58393 21.8093 3.467 23.9314 3.33538 26.5841L3.33334 28.3333C3.4947 31.0732 5.60459 33.1809 8.23873 33.3306L8.6171 33.3312C9.3029 35.2743 11.1555 36.6666 13.3333 36.6666C15.5104 36.6666 17.3624 35.2753 18.0488 33.3333H21.9512C22.6376 35.2753 24.4896 36.6666 26.6667 36.6666C29.4281 36.6666 31.6667 34.4281 31.6667 31.6666C31.6667 28.9052 29.4281 26.6666 26.6667 26.6666C24.4896 26.6666 22.6376 28.058 21.9512 30H18.0488C17.3624 28.058 15.5104 26.6666 13.3333 26.6666C11.1563 26.6666 9.30424 28.058 8.61785 30H8.33334C7.48335 29.949 6.7209 29.1873 6.66368 28.2335L6.66667 26.6666C6.71161 25.8022 7.46885 25.0449 8.41593 24.9979L11.7062 24.9987L11.73 25H28.5281L28.7741 24.9219C30.0378 24.5209 31.0494 23.5694 31.5284 22.3375L31.7039 21.99L31.7088 21.9803L31.7137 21.9708L31.7192 21.9598C31.9402 21.5222 31.9474 21.5079 32.2744 20.8598C32.8646 19.6898 33.4548 18.5179 34.03 17.373C35.4387 14.5684 36.3247 12.7861 36.5209 12.3484C37.5284 10.1007 35.4874 8.37075 33.4012 8.33391L10.1187 6.67088ZM27.949 21.6666H11.8548C11.7478 21.6369 11.6662 21.5462 11.6503 21.4333L10.0171 10.0012L33.1556 11.6582C32.7508 12.4838 32.0148 13.9586 31.0513 15.8768L31.0271 15.9249C30.4771 17.0197 29.8877 18.1901 29.2983 19.3584L28.9404 20.0677L28.7286 20.4872L28.5126 20.9147L28.4313 21.1037C28.3442 21.3462 28.1714 21.5456 27.949 21.6666ZM26.6667 33.3333C27.5871 33.3333 28.3333 32.5871 28.3333 31.6666C28.3333 30.7462 27.5871 30 26.6667 30C25.7462 30 25 30.7462 25 31.6666C25 32.5871 25.7462 33.3333 26.6667 33.3333ZM15 31.6666C15 32.5871 14.2538 33.3333 13.3333 33.3333C12.4129 33.3333 11.6667 32.5871 11.6667 31.6666C11.6667 30.7462 12.4129 30 13.3333 30C14.2538 30 15 30.7462 15 31.6666Z" fill="#3B1B5C"/>
</svg>
